Coordinates
version=1
nRows=20
nColumns=32
inDegrees=yes

Units are S.I. units (second, meters, Newtons, ...)
If the header above contains a line with 'inDegrees', this indicates whether rotational values are in degrees (yes) or radians (no).

endheader
time	pelvis_tilt	pelvis_list	pelvis_rotation	pelvis_tx	pelvis_ty	pelvis_tz	hip_flexion_r	hip_adduction_r	hip_rotation_r	knee_angle_r	knee_adduction_r	med_cond_adduction_r	lat_cond_adduction_r	patella_r_constrained_knee_angle	ankle_angle_r	subtalar_angle_r	mtp_angle_r	hip_flexion_l	hip_adduction_l	hip_rotation_l	knee_angle_l	knee_adduction_l	med_cond_adduction_l	lat_cond_adduction_l	patella_l_constrained_knee_angle	ankle_angle_l	subtalar_angle_l	mtp_angle_l	lumbar_extension	lumbar_bending	lumbar_rotation
      1.61500000	    -11.39852476	     -2.73610715	     -1.56775449	      0.15196354	      0.52580089	     -1.20151069	     86.63551490	    -46.45117192	     -3.81301980	   -107.98247703	     -9.54307598	     -0.00000000	     -0.00000000	     -1.88464976	     27.58243394	     19.35949182	     -0.00000000	     96.33112778	    -49.23160894	      3.76476888	   -110.58735074	     -9.52042131	     -0.00000000	     -0.00000000	     -1.93011338	     25.38432788	     19.71459460	     -0.00000000	    -23.94183972	      4.12657900	     -3.97361672
      1.62000000	    -11.37886987	     -2.77279084	     -1.54588993	      0.15196485	      0.52433907	     -1.20144312	     86.83663414	    -46.51271018	     -3.69998447	   -108.22218790	     -9.55460010	      0.00000000	      0.00000000	     -1.88883350	     27.64722273	     19.35633735	     -0.00000000	     96.67331172	    -49.23916245	      4.03879217	   -110.80483316	     -9.53295086	      0.00000000	      0.00000000	     -1.93390917	     25.40785037	     19.71495452	      0.00000000	    -24.05176562	      4.16077153	     -3.99834213
      1.62500000	    -11.36665274	     -2.79876595	     -1.54065033	      0.15194612	      0.52286932	     -1.20133023	     87.06448501	    -46.54824559	     -3.56256060	   -108.46522587	     -9.56635469	     -0.00000000	     -0.00000000	     -1.89307532	     27.70243666	     19.35342780	      0.00000000	     97.02198049	    -49.25895410	      4.30801303	   -111.01901538	     -9.54599925	     -0.00000000	      0.00000000	     -1.93764735	     25.37319042	     19.71541480	     -0.00000000	    -24.15753413	      4.20515005	     -3.95911731
      1.63000000	    -11.33368958	     -2.83787713	     -1.51459071	      0.15196222	      0.52147438	     -1.20126667	     87.23842800	    -46.61886905	     -3.46166197	   -108.69637710	     -9.57404080	      0.00000000	      0.00000000	     -1.89710967	     27.77477905	     19.35015108	     -0.00000000	     97.32862343	    -49.25869905	      4.57265065	   -111.22946449	     -9.55476044	      0.00000000	      0.00000000	     -1.94132038	     25.46182882	     19.71514505	     -0.00000000	    -24.28137664	      4.22865138	     -4.00613589
      1.63500000	    -11.30969599	     -2.89684716	     -1.49831789	      0.15196357	      0.52004938	     -1.20121070	     87.40095495	    -46.67509360	     -3.38774835	   -108.92510299	     -9.58234020	     -0.00000000	     -0.00000000	     -1.90110169	     27.82443401	     19.34769992	     -0.00000000	     97.69434012	    -49.25978209	      4.89244837	   -111.44445319	     -9.56360901	      0.00000000	     -0.00000000	     -1.94507264	     25.48734400	     19.71572675	      0.00000000	    -24.39524538	      4.26411835	     -4.05922820
      1.64000000	    -11.29156511	     -2.92712023	     -1.48529566	      0.15195888	      0.51863284	     -1.20110449	     87.60837161	    -46.72386643	     -3.26653465	   -109.16082701	     -9.59111343	      0.00000000	      0.00000000	     -1.90521585	     27.87964422	     19.34531789	     -0.00000000	     98.02152432	    -49.26248405	      5.16262420	   -111.65077270	     -9.57360114	      0.00000000	      0.00000000	     -1.94867360	     25.50430860	     19.71574797	     -0.00000000	    -24.49837062	      4.29750636	     -4.05416528
      1.64500000	    -11.27322517	     -2.93716739	     -1.48187052	      0.15193850	      0.51722592	     -1.20097326	     87.84729237	    -46.76154754	     -3.10965843	   -109.39674795	     -9.60002879	      0.00000000	      0.00000000	     -1.90933344	     27.92580888	     19.34316897	     -0.00000000	     98.31283017	    -49.27159354	      5.39517664	   -111.85316071	     -9.58272033	      0.00000000	      0.00000000	     -1.95220593	     25.53314078	     19.71575510	      0.00000000	    -24.60711163	      4.34282193	     -3.97814264
      1.65000000	    -11.23925791	     -2.98259819	     -1.48352516	      0.15193325	      0.51586828	     -1.20085807	     88.00471908	    -46.79119263	     -3.01581058	   -109.61819880	     -9.60676441	      0.00000000	      0.00000000	     -1.91319849	     27.98293195	     19.33855157	     -0.00000000	     98.63056293	    -49.28124199	      5.68807780	   -112.05472845	     -9.59099974	     -0.00000000	      0.00000000	     -1.95572395	     25.58635002	     19.71577694	      0.00000000	    -24.73650062	      4.34692289	     -4.02193707
      1.65500000	    -11.20425224	     -3.00767270	     -1.48747530	      0.15191392	      0.51455233	     -1.20071161	     88.18906558	    -46.81542808	     -2.89674898	   -109.84321867	     -9.61335323	      0.00000000	      0.00000000	     -1.91712583	     28.03514501	     19.33826036	     -0.00000000	     98.91028446	    -49.28538593	      5.95165169	   -112.24595369	     -9.59860898	     -0.00000000	      0.00000000	     -1.95906146	     25.61639344	     19.71547791	     -0.00000000	    -24.86423614	      4.37230025	     -3.98249164
      1.66000000	    -11.19061593	     -3.06788001	     -1.47475398	      0.15194054	      0.51312172	     -1.20063185	     88.36847478	    -46.87787214	     -2.83058147	   -110.07594228	     -9.62175889	     -0.00000000	     -0.00000000	     -1.92118762	     28.07785497	     19.33498051	     -0.00000000	     99.28349624	    -49.27471305	      6.27547382	   -112.45963159	     -9.60717032	      0.00000000	      0.00000000	     -1.96279085	     25.62443010	     19.71539716	      0.00000000	    -24.95480410	      4.40214116	     -4.04504862
      1.66500000	    -11.16101132	     -3.10005209	     -1.48884007	      0.15193591	      0.51179064	     -1.20048675	     88.55211159	    -46.89362584	     -2.71881868	   -110.30102442	     -9.62726439	      0.00000000	      0.00000000	     -1.92511604	     28.12261506	     19.33301135	      0.00000000	     99.57968711	    -49.28002262	      6.55780839	   -112.65494447	     -9.61456447	      0.00000000	      0.00000000	     -1.96619970	     25.65579822	     19.71526991	     -0.00000000	    -25.08112144	      4.41199423	     -4.03560671
      1.67000000	    -11.16242791	     -2.95603429	     -1.52196257	      0.15187682	      0.51034645	     -1.20012451	     89.04604208	    -46.88057296	     -2.27835984	   -110.56275337	     -9.63000838	      0.00000000	      0.00000000	     -1.92968408	     28.14440590	     19.33228712	     -0.00000000	     99.66732965	    -49.31083167	      6.55483533	   -112.83560390	     -9.62337561	      0.00000000	      0.00000000	     -1.96935280	     25.69795097	     19.71457725	      0.00000000	    -25.15215124	      4.16594510	     -4.08163924
      1.67500000	    -11.10182403	     -3.19137282	     -1.51799288	      0.15196731	      0.50912831	     -1.20022316	     88.88304662	    -46.92719055	     -2.53662767	   -110.74469109	     -9.63921546	     -0.00000000	     -0.00000000	     -1.93285949	     28.20489966	     19.32720048	     -0.00000000	    100.20715456	    -49.28661257	      7.16235528	   -113.05216619	     -9.62830524	      0.00000000	      0.00000000	     -1.97313253	     25.72683914	     19.71430160	      0.00000000	    -25.31040183	      4.47143619	     -4.01418245
      1.68000000	    -11.06729038	     -3.19975721	     -1.53750630	      0.15194702	      0.50783301	     -1.20006293	     89.09471402	    -46.93754555	     -2.38493884	   -110.96336729	     -9.64507448	     -0.00000000	     -0.00000000	     -1.93667611	     28.24568324	     19.32509087	     -0.00000000	    100.44619302	    -49.28558149	      7.39399875	   -113.24248637	     -9.63649278	     -0.00000000	     -0.00000000	     -1.97645424	     25.77714458	     19.71402277	      0.00000000	    -25.44152318	      4.45495247	     -4.00827434
      1.68500000	    -11.03555504	     -3.27428475	     -1.55256620	      0.15199451	      0.50649309	     -1.19995638	     89.21907822	    -46.96363059	     -2.35069519	   -111.18414816	     -9.65141981	     -0.00000000	      0.00000000	     -1.94052946	     28.28606942	     19.32300044	      0.00000000	    100.79675873	    -49.27688440	      7.75394384	   -113.44551017	     -9.64320948	     -0.00000000	     -0.00000000	     -1.97999767	     25.79769221	     19.71327926	     -0.00000000	    -25.55251370	      4.50718559	     -4.00768742
      1.69000000	    -11.00292218	     -3.26228947	     -1.58593174	      0.15200909	      0.50520482	     -1.19973972	     89.46093527	    -46.95609817	     -2.16084242	   -111.41214226	     -9.65602645	      0.00000000	     -0.00000000	     -1.94450871	     28.31993168	     19.32003617	      0.00000000	    100.99985121	    -49.28917954	      7.96081640	   -113.63180871	     -9.65035221	     -0.00000000	     -0.00000000	     -1.98324920	     25.86959658	     19.71250562	      0.00000000	    -25.66396454	      4.44291077	     -4.01303062
      1.69500000	    -10.97903576	     -3.28189408	     -1.61170582	      0.15207992	      0.50388506	     -1.19956668	     89.66258011	    -46.96779087	     -2.03858154	   -111.63956097	     -9.65866244	      0.00000000	      0.00000000	     -1.94847791	     28.36061622	     19.31850173	      0.00000000	    101.25913347	    -49.29547230	      8.22176358	   -113.82332676	     -9.65647015	      0.00000000	      0.00000000	     -1.98659182	     25.94848963	     19.71173110	     -0.00000000	    -25.76365647	      4.47193537	     -3.96796250
      1.70000000	    -10.93154727	     -3.36917787	     -1.63942834	      0.15210011	      0.50260156	     -1.19947345	     89.74737680	    -46.96861818	     -2.01797530	   -111.84315849	     -9.66583465	      0.00000000	      0.00000000	     -1.95203136	     28.39325638	     19.31501821	      0.00000000	    101.60302694	    -49.27292234	      8.60294423	   -114.02505584	     -9.66333349	     -0.00000000	      0.00000000	     -1.99011265	     25.96190707	     19.71071504	     -0.00000000	    -25.89804554	      4.53124511	     -3.95483921
      1.70500000	    -10.89498451	     -3.37859171	     -1.63895081	      0.15215621	      0.50133265	     -1.19935342	     89.95019165	    -47.00957944	     -1.87324453	   -112.06094929	     -9.67234650	      0.00000000	      0.00000000	     -1.95583253	     28.42659743	     19.31586408	      0.00000000	    101.80621627	    -49.23545162	      8.82553576	   -114.21293067	     -9.67065630	      0.00000000	      0.00000000	     -1.99339169	     26.05700799	     19.70922422	     -0.00000000	    -26.01115479	      4.43344219	     -4.13206155
      1.71000000	    -10.86959828	     -3.36293419	     -1.70221129	      0.15220165	      0.49999926	     -1.19908712	     90.20131875	    -46.96865642	     -1.67496387	   -112.29079024	     -9.67371846	      0.00000000	      0.00000000	     -1.95984401	     28.45761609	     19.31390183	      0.00000000	    102.03669415	    -49.26469628	      9.05265131	   -114.40120840	     -9.67619787	     -0.00000000	     -0.00000000	     -1.99667775	     26.07149531	     19.70780256	     -0.00000000	    -26.10901418	      4.34458032	     -4.12827014
